<?xml version="1.0" standalone="no"?><!DOCTYPE svg PUBLIC "-//W3C//DTD SVG 1.1//EN" "http://www.w3.org/Graphics/SVG/1.1/DTD/svg11.dtd"><svg t="1633503577523" class="icon" viewBox="0 0 1024 1024" version="1.1" xmlns="http://www.w3.org/2000/svg" p-id="1887" xmlns:xlink="http://www.w3.org/1999/xlink" width="200" height="200"><defs><style type="text/css"></style></defs><path d="M512 85.319111c-235.633778 0-426.666667 191.032889-426.666667 426.666667 0 235.633778 191.032889 426.666667 426.666667 426.666666 235.633778 0 426.666667-191.032889 426.666667-426.666666 0-235.633778-191.032889-426.666667-426.666667-426.666667m0 85.333333c188.202667 0 341.333333 153.130667 341.333333 341.333334 0 188.216889-153.130667 341.333333-341.333333 341.333333s-341.333333-153.116444-341.333333-341.333333c0-188.202667 153.130667-341.333333 341.333333-341.333334" fill="#000000" p-id="1888"></path><path d="M725.333333 554.652444H298.666667a42.666667 42.666667 0 1 1 0-85.333333h426.666666a42.666667 42.666667 0 1 1 0 85.333333" fill="#000000" p-id="1889"></path><path d="M512 767.985778a42.666667 42.666667 0 0 1-42.666667-42.666667v-426.666667a42.666667 42.666667 0 1 1 85.333334 0v426.666667a42.666667 42.666667 0 0 1-42.666667 42.666667" fill="#000000" p-id="1890"></path></svg>