<?xml version="1.0" standalone="no"?><!DOCTYPE svg PUBLIC "-//W3C//DTD SVG 1.1//EN" "http://www.w3.org/Graphics/SVG/1.1/DTD/svg11.dtd"><svg t="1633503597011" class="icon" viewBox="0 0 1024 1024" version="1.1" xmlns="http://www.w3.org/2000/svg" p-id="2027" xmlns:xlink="http://www.w3.org/1999/xlink" width="200" height="200"><defs><style type="text/css"></style></defs><path d="M224.995556 216.192a10.894222 10.894222 0 0 0-8.789334 8.775111L170.837333 482.133333a10.808889 10.808889 0 0 0 2.986667 9.514667l358.485333 358.499556a10.666667 10.666667 0 0 0 7.651556 3.171555 10.666667 10.666667 0 0 0 7.68-3.171555l302.520889-302.535112a10.666667 10.666667 0 0 0 3.171555-7.651555 10.624 10.624 0 0 0-3.171555-7.651556L491.676444 173.824a10.88 10.88 0 0 0-9.514666-3.000889l-257.180445 45.368889z m314.965333 722.460444a95.473778 95.473778 0 0 1-67.982222-28.174222L113.493333 551.992889a96.227556 96.227556 0 0 1-26.709333-84.679111l45.383111-257.180445a96.483556 96.483556 0 0 1 77.966222-77.966222h0.014223l257.166222-45.383111a96.341333 96.341333 0 0 1 84.693333 26.680889L910.506667 471.964444A95.488 95.488 0 0 1 938.666667 539.960889a95.445333 95.445333 0 0 1-28.16 67.982222L607.943111 910.478222a95.488 95.488 0 0 1-67.982222 28.174222z" fill="#000000" p-id="2028"></path><path d="M459.050667 311.950222a146.631111 146.631111 0 0 0-103.992889 43.093334c-57.443556 57.429333-57.443556 150.556444 0 207.985777a146.588444 146.588444 0 0 0 103.992889 43.093334c37.632 0 75.278222-14.364444 103.992889-43.093334 57.457778-57.429333 57.457778-150.556444 0-208a146.631111 146.631111 0 0 0-103.992889-43.079111m0 85.333334c16.497778 0 32 6.428444 43.662222 18.090666a61.354667 61.354667 0 0 1 18.076444 43.662222c0 16.497778-6.4 32-18.062222 43.662223a61.397333 61.397333 0 0 1-43.662222 18.090666c-16.497778 0-32-6.442667-43.662222-18.090666a61.326222 61.326222 0 0 1-18.090667-43.662223c0-16.483556 6.414222-32 18.076444-43.662222a61.340444 61.340444 0 0 1 43.662223-18.090666" fill="#000000" p-id="2029"></path></svg>